<mxfile host="app.diagrams.net" modified="2021-05-12T13:45:29.232Z" agent="5.0 (X11; CrOS aarch64 13816.64.0) AppleWebKit/537.36 (KHTML, like Gecko) Chrome/90.0.4430.100 Safari/537.36" etag="IFE9brg9ZxQxoW9zIclc" version="14.6.11" type="github">
  <diagram id="WVdtkkrB6cYov12L7EP4" name="Page-1">
    <mxGraphModel dx="582" dy="383" grid="1" gridSize="10" guides="1" tooltips="1" connect="1" arrows="1" fold="1" page="1" pageScale="1" pageWidth="850" pageHeight="1100" math="0" shadow="0">
      <root>
        <mxCell id="0" />
        <mxCell id="1" parent="0" />
        <mxCell id="Jb-3REP2ZKhQXGmZmdTh-20" style="edgeStyle=orthogonalEdgeStyle;rounded=0;orthogonalLoop=1;jettySize=auto;html=1;exitX=0.5;exitY=1;exitDx=0;exitDy=0;exitPerimeter=0;entryX=0.5;entryY=0;entryDx=0;entryDy=0;" edge="1" parent="1" source="Jb-3REP2ZKhQXGmZmdTh-1" target="Jb-3REP2ZKhQXGmZmdTh-2">
          <mxGeometry relative="1" as="geometry" />
        </mxCell>
        <mxCell id="Jb-3REP2ZKhQXGmZmdTh-1" value="Start" style="strokeWidth=2;html=1;shape=mxgraph.flowchart.terminator;whiteSpace=wrap;" vertex="1" parent="1">
          <mxGeometry x="250" y="110" width="100" height="60" as="geometry" />
        </mxCell>
        <mxCell id="Jb-3REP2ZKhQXGmZmdTh-11" style="edgeStyle=orthogonalEdgeStyle;rounded=0;orthogonalLoop=1;jettySize=auto;html=1;exitX=0.5;exitY=1;exitDx=0;exitDy=0;entryX=0.5;entryY=0;entryDx=0;entryDy=0;entryPerimeter=0;" edge="1" parent="1" source="Jb-3REP2ZKhQXGmZmdTh-2" target="Jb-3REP2ZKhQXGmZmdTh-9">
          <mxGeometry relative="1" as="geometry" />
        </mxCell>
        <mxCell id="Jb-3REP2ZKhQXGmZmdTh-2" value="Get year" style="shape=parallelogram;html=1;strokeWidth=2;perimeter=parallelogramPerimeter;whiteSpace=wrap;rounded=1;arcSize=12;size=0.23;" vertex="1" parent="1">
          <mxGeometry x="250" y="190" width="100" height="60" as="geometry" />
        </mxCell>
        <mxCell id="Jb-3REP2ZKhQXGmZmdTh-14" style="edgeStyle=orthogonalEdgeStyle;rounded=0;orthogonalLoop=1;jettySize=auto;html=1;exitX=0.5;exitY=1;exitDx=0;exitDy=0;exitPerimeter=0;entryX=0.5;entryY=0;entryDx=0;entryDy=0;entryPerimeter=0;" edge="1" parent="1" source="Jb-3REP2ZKhQXGmZmdTh-3" target="Jb-3REP2ZKhQXGmZmdTh-4">
          <mxGeometry relative="1" as="geometry" />
        </mxCell>
        <mxCell id="Jb-3REP2ZKhQXGmZmdTh-24" style="edgeStyle=orthogonalEdgeStyle;rounded=0;orthogonalLoop=1;jettySize=auto;html=1;exitX=1;exitY=0.5;exitDx=0;exitDy=0;exitPerimeter=0;entryX=0.5;entryY=0;entryDx=0;entryDy=0;" edge="1" parent="1" source="Jb-3REP2ZKhQXGmZmdTh-3" target="Jb-3REP2ZKhQXGmZmdTh-6">
          <mxGeometry relative="1" as="geometry" />
        </mxCell>
        <mxCell id="Jb-3REP2ZKhQXGmZmdTh-3" value="If year %4 != 0" style="strokeWidth=2;html=1;shape=mxgraph.flowchart.decision;whiteSpace=wrap;" vertex="1" parent="1">
          <mxGeometry x="250" y="390" width="100" height="100" as="geometry" />
        </mxCell>
        <mxCell id="Jb-3REP2ZKhQXGmZmdTh-15" style="edgeStyle=orthogonalEdgeStyle;rounded=0;orthogonalLoop=1;jettySize=auto;html=1;exitX=1;exitY=0.5;exitDx=0;exitDy=0;exitPerimeter=0;entryX=0.5;entryY=0;entryDx=0;entryDy=0;" edge="1" parent="1" source="Jb-3REP2ZKhQXGmZmdTh-4" target="Jb-3REP2ZKhQXGmZmdTh-6">
          <mxGeometry relative="1" as="geometry" />
        </mxCell>
        <mxCell id="Jb-3REP2ZKhQXGmZmdTh-16" style="edgeStyle=orthogonalEdgeStyle;rounded=0;orthogonalLoop=1;jettySize=auto;html=1;exitX=0.5;exitY=1;exitDx=0;exitDy=0;exitPerimeter=0;entryX=0.5;entryY=0;entryDx=0;entryDy=0;" edge="1" parent="1" source="Jb-3REP2ZKhQXGmZmdTh-4" target="Jb-3REP2ZKhQXGmZmdTh-5">
          <mxGeometry relative="1" as="geometry" />
        </mxCell>
        <mxCell id="Jb-3REP2ZKhQXGmZmdTh-4" value="If year %400 != 0&amp;nbsp;" style="strokeWidth=2;html=1;shape=mxgraph.flowchart.decision;whiteSpace=wrap;" vertex="1" parent="1">
          <mxGeometry x="250" y="510" width="100" height="100" as="geometry" />
        </mxCell>
        <mxCell id="Jb-3REP2ZKhQXGmZmdTh-17" style="edgeStyle=orthogonalEdgeStyle;rounded=0;orthogonalLoop=1;jettySize=auto;html=1;exitX=0.5;exitY=1;exitDx=0;exitDy=0;entryX=0.5;entryY=0;entryDx=0;entryDy=0;entryPerimeter=0;" edge="1" parent="1" source="Jb-3REP2ZKhQXGmZmdTh-5" target="Jb-3REP2ZKhQXGmZmdTh-8">
          <mxGeometry relative="1" as="geometry" />
        </mxCell>
        <mxCell id="Jb-3REP2ZKhQXGmZmdTh-5" value="Print &quot;{0} is a common year.&quot;" style="shape=parallelogram;html=1;strokeWidth=2;perimeter=parallelogramPerimeter;whiteSpace=wrap;rounded=1;arcSize=12;size=0.23;" vertex="1" parent="1">
          <mxGeometry x="250" y="640" width="100" height="60" as="geometry" />
        </mxCell>
        <mxCell id="Jb-3REP2ZKhQXGmZmdTh-18" style="edgeStyle=orthogonalEdgeStyle;rounded=0;orthogonalLoop=1;jettySize=auto;html=1;exitX=0.5;exitY=1;exitDx=0;exitDy=0;" edge="1" parent="1" source="Jb-3REP2ZKhQXGmZmdTh-6">
          <mxGeometry relative="1" as="geometry">
            <mxPoint x="300" y="750" as="targetPoint" />
          </mxGeometry>
        </mxCell>
        <mxCell id="Jb-3REP2ZKhQXGmZmdTh-6" value="Print &quot;{0} is a leap year.&quot;" style="shape=parallelogram;html=1;strokeWidth=2;perimeter=parallelogramPerimeter;whiteSpace=wrap;rounded=1;arcSize=12;size=0.23;" vertex="1" parent="1">
          <mxGeometry x="400" y="640" width="100" height="60" as="geometry" />
        </mxCell>
        <mxCell id="Jb-3REP2ZKhQXGmZmdTh-8" value="Stop" style="strokeWidth=2;html=1;shape=mxgraph.flowchart.terminator;whiteSpace=wrap;" vertex="1" parent="1">
          <mxGeometry x="250" y="750" width="100" height="60" as="geometry" />
        </mxCell>
        <mxCell id="Jb-3REP2ZKhQXGmZmdTh-12" style="edgeStyle=orthogonalEdgeStyle;rounded=0;orthogonalLoop=1;jettySize=auto;html=1;exitX=1;exitY=0.5;exitDx=0;exitDy=0;exitPerimeter=0;entryX=0.5;entryY=0;entryDx=0;entryDy=0;" edge="1" parent="1" source="Jb-3REP2ZKhQXGmZmdTh-9" target="Jb-3REP2ZKhQXGmZmdTh-10">
          <mxGeometry relative="1" as="geometry" />
        </mxCell>
        <mxCell id="Jb-3REP2ZKhQXGmZmdTh-21" value="Exception" style="edgeLabel;html=1;align=center;verticalAlign=middle;resizable=0;points=[];" vertex="1" connectable="0" parent="Jb-3REP2ZKhQXGmZmdTh-12">
          <mxGeometry x="-0.5083" y="5" relative="1" as="geometry">
            <mxPoint y="-5" as="offset" />
          </mxGeometry>
        </mxCell>
        <mxCell id="Jb-3REP2ZKhQXGmZmdTh-13" style="edgeStyle=orthogonalEdgeStyle;rounded=0;orthogonalLoop=1;jettySize=auto;html=1;exitX=0.5;exitY=1;exitDx=0;exitDy=0;exitPerimeter=0;entryX=0.5;entryY=0;entryDx=0;entryDy=0;entryPerimeter=0;" edge="1" parent="1" source="Jb-3REP2ZKhQXGmZmdTh-9" target="Jb-3REP2ZKhQXGmZmdTh-3">
          <mxGeometry relative="1" as="geometry" />
        </mxCell>
        <mxCell id="Jb-3REP2ZKhQXGmZmdTh-9" value="Try int(year)" style="strokeWidth=2;html=1;shape=mxgraph.flowchart.decision;whiteSpace=wrap;" vertex="1" parent="1">
          <mxGeometry x="250" y="270" width="100" height="100" as="geometry" />
        </mxCell>
        <mxCell id="Jb-3REP2ZKhQXGmZmdTh-19" style="edgeStyle=orthogonalEdgeStyle;rounded=0;orthogonalLoop=1;jettySize=auto;html=1;exitX=0.5;exitY=1;exitDx=0;exitDy=0;" edge="1" parent="1" source="Jb-3REP2ZKhQXGmZmdTh-10">
          <mxGeometry relative="1" as="geometry">
            <mxPoint x="300" y="750" as="targetPoint" />
          </mxGeometry>
        </mxCell>
        <mxCell id="Jb-3REP2ZKhQXGmZmdTh-10" value="print(&quot;{0} is not a valid year.&quot;)" style="shape=parallelogram;html=1;strokeWidth=2;perimeter=parallelogramPerimeter;whiteSpace=wrap;rounded=1;arcSize=12;size=0.23;" vertex="1" parent="1">
          <mxGeometry x="550" y="640" width="100" height="60" as="geometry" />
        </mxCell>
        <mxCell id="Jb-3REP2ZKhQXGmZmdTh-22" value="Yes" style="text;html=1;align=center;verticalAlign=middle;resizable=0;points=[];autosize=1;strokeColor=none;" vertex="1" parent="1">
          <mxGeometry x="300" y="370" width="40" height="20" as="geometry" />
        </mxCell>
        <mxCell id="Jb-3REP2ZKhQXGmZmdTh-23" value="No" style="text;html=1;align=center;verticalAlign=middle;resizable=0;points=[];autosize=1;strokeColor=none;" vertex="1" parent="1">
          <mxGeometry x="375" y="540" width="30" height="20" as="geometry" />
        </mxCell>
        <mxCell id="Jb-3REP2ZKhQXGmZmdTh-25" value="No" style="text;html=1;align=center;verticalAlign=middle;resizable=0;points=[];autosize=1;strokeColor=none;" vertex="1" parent="1">
          <mxGeometry x="375" y="420" width="30" height="20" as="geometry" />
        </mxCell>
        <mxCell id="Jb-3REP2ZKhQXGmZmdTh-26" value="Yes" style="text;html=1;align=center;verticalAlign=middle;resizable=0;points=[];autosize=1;strokeColor=none;" vertex="1" parent="1">
          <mxGeometry x="300" y="490" width="40" height="20" as="geometry" />
        </mxCell>
        <mxCell id="Jb-3REP2ZKhQXGmZmdTh-27" value="Yes" style="text;html=1;align=center;verticalAlign=middle;resizable=0;points=[];autosize=1;strokeColor=none;" vertex="1" parent="1">
          <mxGeometry x="300" y="610" width="40" height="20" as="geometry" />
        </mxCell>
      </root>
    </mxGraphModel>
  </diagram>
</mxfile>
